# xmcd CD database file generated by Grip 3.0.3
# 
# Track frame offsets:
#       182
#       25022
#       41485
#       61915
#       84475
#       104835
#       128317
#       147510
#       167740
#       185957
#       207072
# 
# Disc length: 3103 seconds
# 
# Revision: 2
# Processed by: cddbd v1.4PL0 Copyright (c) Steve Scherf et al.
# Submitted via: Grip 3.0.3
# 
DISCID=960c1d0b
DTITLE=Counting Crows - August And Everything After
DYEAR=1993
DGENRE=Country
TTITLE0=Round Here
TTITLE1=Omaha
TTITLE2=Mr. Jones
TTITLE3=Perfect Blue Buildings
TTITLE4=Anna Begins
TTITLE5=Time and Time Again
TTITLE6=Rain King
TTITLE7=Sullivan Street
TTITLE8=Ghost Train
TTITLE9=Raining in Baltimore
TTITLE10=A Murder of One
EXTD=
EXTT0=
EXTT1=
EXTT2=
EXTT3=
EXTT4=
EXTT5=
EXTT6=
EXTT7=
EXTT8=
EXTT9=
EXTT10=
PLAYORDER=
